<?xml version="1.0" encoding="UTF-8" standalone="no"?>
<!-- Created with Inkscape (http://www.inkscape.org/) -->

<svg
   width="264.80179mm"
   height="264.79019mm"
   viewBox="0 0 264.80179 264.79019"
   version="1.1"
   id="svg89546"
   xml:space="preserve"
   sodipodi:docname="RFI boxed.svg"
   inkscape:version="1.2 (dc2aedaf03, 2022-05-15)"
   xmlns:inkscape="http://www.inkscape.org/namespaces/inkscape"
   xmlns:sodipodi="http://sodipodi.sourceforge.net/DTD/sodipodi-0.dtd"
   xmlns="http://www.w3.org/2000/svg"
   xmlns:svg="http://www.w3.org/2000/svg"><sodipodi:namedview
     id="namedview89548"
     pagecolor="#ffffff"
     bordercolor="#999999"
     borderopacity="1"
     inkscape:showpageshadow="0"
     inkscape:pageopacity="0"
     inkscape:pagecheckerboard="0"
     inkscape:deskcolor="#d1d1d1"
     inkscape:document-units="mm"
     showgrid="false"
     inkscape:zoom="0.38974818"
     inkscape:cx="673.51181"
     inkscape:cy="737.65579"
     inkscape:current-layer="layer1" /><defs
     id="defs89543"><clipPath
       clipPathUnits="userSpaceOnUse"
       id="clipPath89733"><path
         d="m 1073.2,521.375 h 23.024 v 23.043 H 1073.2 Z"
         id="path89735"
         style="stroke-width:0.999997" /></clipPath><clipPath
       clipPathUnits="userSpaceOnUse"
       id="clipPath89737"><path
         d="m 1073.2,521.375 h 23.024 v 23.043 H 1073.2 Z"
         id="path89739"
         style="stroke-width:0.999997" /></clipPath><clipPath
       clipPathUnits="userSpaceOnUse"
       id="clipPath89741"><path
         d="m 1073.2,521.375 h 23.024 v 23.043 H 1073.2 Z"
         id="path89743"
         style="stroke-width:0.999997" /></clipPath><clipPath
       clipPathUnits="userSpaceOnUse"
       id="clipPath89745"><path
         d="m 1073.2,521.375 h 23.024 v 23.043 H 1073.2 Z"
         id="path89747"
         style="stroke-width:0.999997" /></clipPath><clipPath
       clipPathUnits="userSpaceOnUse"
       id="clipPath89749"><path
         d="m 1073.2,521.375 h 23.024 v 23.043 H 1073.2 Z"
         id="path89751"
         style="stroke-width:0.999997" /></clipPath></defs><g
     inkscape:label="Layer 1"
     inkscape:groupmode="layer"
     id="layer1"
     transform="translate(374.47405,29.88652)"><path
       style="fill:#c70a0e;fill-opacity:1;fill-rule:evenodd;stroke:none;stroke-width:11.4916"
       d="m -374.24422,-29.88652 h 264.57196 V 234.90366 H -374.47405 V -29.220006 c 0,-0.321765 0,-0.632039 0.22983,-0.666514"
       id="path89761" /><path
       d="m -238.29855,1.8122397 c -36.68781,0 -45.13323,21.3730143 -45.13323,54.1063443 V 68.324921 88.389073 201.27225 h 24.81269 V 88.389073 h 29.18223 V 68.324921 h -29.18223 V 53.811846 c 0,-18.210203 2.64468,-31.935449 24.02128,-31.935449 1.68872,-1e-6 3.45814,0.0875 5.16095,0.256375 V 2.3138446 c -2.75358,-0.3002206 -5.67653,-0.5016049 -8.86169,-0.5016049 z m 29.49434,1.4936654 V 48.182736 h 66.52383 V 3.3059051 Z M -295.5706,66.195893 c -19.28913,1.017928 -31.41207,13.629157 -36.89578,30.943383 h -0.60192 V 68.347219 h -11.43658 V 201.27225 h 11.43658 v -74.03673 c 0,-25.05428 12.41058,-49.261834 37.4977,-50.795764 z m 86.76639,2.173611 V 201.27225 h 66.52383 V 68.369504 Z"
       id="path12044"
       style="fill:#ffffff;fill-opacity:1;fill-rule:nonzero;stroke:none;stroke-width:0.356695" /></g></svg>
